<!--?xml version="1.0" standalone="no"?-->
              <svg id="sw-js-blob-svg" viewBox="0 0 100 100" xmlns="http://www.w3.org/2000/svg" version="1.1">
                    <defs> 
                        <linearGradient id="sw-gradient" x1="0" x2="1" y1="1" y2="0">
                            <stop id="stop1" stop-color="rgba(203, 108, 230, 1)" offset="0%"></stop>
                            <stop id="stop2" stop-color="rgba(82, 113, 255, 1)" offset="100%"></stop>
                        </linearGradient>
                    </defs>
                <path fill="url(#sw-gradient)" d="M25.5,-35.6C32.6,-29.9,37.7,-21.9,40.6,-13.2C43.5,-4.4,44.2,5.1,40.5,12.1C36.8,19.1,28.6,23.7,21.1,25.8C13.7,27.9,6.8,27.5,-0.6,28.3C-8,29.1,-16,31,-21.7,28.4C-27.4,25.7,-31,18.4,-31,11.7C-31,4.9,-27.5,-1.5,-25.7,-8.8C-23.9,-16,-23.8,-24.3,-19.8,-31.1C-15.7,-37.9,-7.9,-43.3,0.6,-44.2C9.2,-45,18.3,-41.4,25.5,-35.6Z" width="100%" height="100%" transform="translate(50 50)" style="transition: all 0.3s ease 0s;" stroke-width="0" stroke="url(#sw-gradient)"></path>
              </svg>