<?xml version="1.0" standalone="no"?>
<!DOCTYPE svg PUBLIC "-//W3C//DTD SVG 20010904//EN"
 "http://www.w3.org/TR/2001/REC-SVG-20010904/DTD/svg10.dtd">
<svg version="1.0" xmlns="http://www.w3.org/2000/svg"
 width="900.000000pt" height="900.000000pt" viewBox="0 0 900.000000 900.000000"
 preserveAspectRatio="xMidYMid meet">
<metadata>
Created by potrace 1.14, written by Peter Selinger 2001-2017
</metadata>
<g transform="translate(0.000000,900.000000) scale(0.100000,-0.100000)"
fill="#000000" stroke="none">
<path d="M0 4500 l0 -4500 4500 0 4500 0 0 4500 0 4500 -4500 0 -4500 0 0
-4500z m4990 3100 c0 -5 -4 -10 -10 -10 -5 0 -10 5 -10 10 0 6 5 10 10 10 6 0
10 -4 10 -10z m613 -62 c-6 -12 -31 -10 -38 2 -4 6 -4 18 -1 27 6 14 9 14 25
-3 10 -10 17 -22 14 -26z m-308 -153 c0 -21 -31 -33 -46 -18 -5 5 -7 17 -3 27
9 24 49 17 49 -9z m-668 -130 c-1 -5 8 -9 20 -9 13 1 21 -2 18 -6 -5 -8 -66
-7 -80 1 -5 4 -17 5 -26 4 -9 -2 -16 3 -16 9 0 7 17 12 43 12 24 0 42 -5 41
-11z m298 -5 c258 -30 527 -105 854 -238 9 -3 12 -1 7 7 -12 19 13 44 31 30
11 -10 11 -15 -3 -30 -15 -16 -8 -21 113 -83 136 -69 351 -207 468 -300 46
-36 76 -54 87 -50 13 4 16 1 12 -9 -3 -9 21 -38 64 -78 91 -85 135 -136 117
-136 -8 0 -13 5 -12 11 1 6 -12 11 -30 10 -25 0 -31 3 -28 18 2 10 1 16 -3 14
-4 -2 -46 29 -92 70 -195 173 -391 308 -609 418 -122 62 -301 141 -305 134 -1
-2 -10 -15 -19 -30 -20 -32 -33 -34 -64 -13 -26 19 -20 47 10 43 11 -2 22 2
24 9 3 7 -33 24 -94 43 -93 30 -99 31 -125 15 -38 -22 -74 -3 -70 36 1 4 -32
13 -73 21 -61 12 -75 13 -75 2 0 -17 -21 -29 -29 -16 -3 6 -15 10 -26 9 -14
-1 -19 3 -17 15 2 13 -8 18 -45 23 -26 4 -57 9 -68 13 -11 3 -29 6 -40 7 -11
0 -19 6 -18 11 1 6 -4 11 -12 11 -8 0 -12 -3 -10 -7 2 -4 -2 -7 -10 -7 -8 0
-13 5 -12 11 1 6 -8 10 -20 10 -13 -1 -21 2 -19 5 7 11 48 11 141 1z m941 -57
c19 -25 17 -33 -5 -33 -23 0 -35 15 -27 35 7 20 16 19 32 -2z m-767 -196 c8
-10 7 -14 -2 -14 -8 0 -14 6 -14 14 0 7 1 13 2 13 2 0 8 -6 14 -13z m376 -56
c3 -5 2 -12 -3 -15 -5 -3 -9 1 -9 9 0 17 3 19 12 6z m1309 -182 c-3 -5 -10 -7
-15 -3 -5 3 -7 10 -3 15 3 5 10 7 15 3 5 -3 7 -10 3 -15z m-1040 -67 c3 -5 -1
-9 -9 -9 -8 0 -12 4 -9 9 3 4 7 8 9 8 2 0 6 -4 9 -8z m40 -20 c3 -5 -1 -9 -9
-9 -8 0 -12 4 -9 9 3 4 7 8 9 8 2 0 6 -4 9 -8z m289 -7 c4 -8 1 -17 -6 -21 -7
-4 -9 -4 -5 1 4 4 3 14 -3 22 -7 8 -8 13 -1 13 5 0 12 -7 15 -15z m-254 -8 c8
-10 7 -14 -2 -14 -8 0 -14 6 -14 14 0 7 1 13 2 13 2 0 8 -6 14 -13z m65 -25
c3 -5 -1 -9 -9 -9 -8 0 -12 4 -9 9 3 4 7 8 9 8 2 0 6 -4 9 -8z m40 -20 c3 -5
-1 -9 -9 -9 -8 0 -12 4 -9 9 3 4 7 8 9 8 2 0 6 -4 9 -8z m40 -20 c3 -5 -1 -9
-9 -9 -8 0 -12 4 -9 9 3 4 7 8 9 8 2 0 6 -4 9 -8z m40 -20 c3 -5 -1 -9 -9 -9
-8 0 -12 4 -9 9 3 4 7 8 9 8 2 0 6 -4 9 -8z m906 -127 c15 -18 6 -45 -13 -45
-8 0 -20 7 -27 15 -10 12 -10 18 0 30 16 19 24 19 40 0z m343 -47 c4 -12 4
-24 1 -27 -8 -9 -37 27 -30 38 11 17 23 13 29 -11z m-486 -142 c-1 -6 3 -10 9
-9 6 1 30 -17 53 -41 39 -40 40 -42 17 -42 -14 0 -24 5 -23 11 1 5 -8 9 -20 9
-12 -1 -21 4 -20 10 1 6 -8 11 -19 10 -21 -1 -27 17 -11 32 4 4 2 12 -3 19 -7
8 -5 12 5 12 7 0 13 -5 12 -11z m-2697 -1726 l0 -620 -60 0 -60 0 0 613 c0
338 3 617 7 620 3 4 30 7 60 7 l53 0 0 -620z m458 584 c69 -78 -49 -184 -123
-109 -44 43 -26 115 35 138 26 10 64 -3 88 -29z m1260 4 c51 -49 11 -138 -63
-138 -69 0 -108 73 -69 128 32 46 88 50 132 10z m-3818 -93 l0 -55 -205 0
-205 0 0 -530 0 -530 -60 0 -60 0 0 530 0 530 -205 0 -205 0 0 55 0 55 470 0
470 0 0 -55z m300 -606 c126 -283 167 -367 175 -355 5 8 80 174 165 368 l156
353 57 3 c31 2 57 0 57 -4 0 -4 -104 -239 -231 -524 -233 -522 -270 -591 -338
-637 -93 -63 -263 -53 -354 21 -18 14 -17 16 9 55 14 23 28 41 30 41 2 0 19
-11 39 -24 71 -49 171 -46 230 6 33 29 105 158 105 189 0 8 -85 205 -190 438
-104 233 -190 428 -190 433 0 4 26 8 58 8 l58 0 164 -371z m903 -1 c89 -202
164 -368 167 -368 3 0 78 166 167 368 l162 367 55 3 c31 2 56 -1 56 -6 0 -11
-414 -941 -454 -1020 -34 -68 -89 -128 -140 -154 -86 -44 -247 -30 -313 26
l-27 24 19 37 c26 48 30 50 63 27 57 -40 133 -52 189 -31 45 17 82 59 124 141
l39 77 -195 435 c-107 240 -195 438 -195 441 0 3 27 5 60 3 l60 -3 163 -367z
m1347 -68 l0 -440 -60 0 -60 0 0 433 c0 239 3 437 7 440 3 4 30 7 60 7 l53 0
0 -440z m722 429 c63 -13 168 -58 168 -72 0 -14 -43 -88 -49 -84 -81 45 -162
66 -256 67 -95 0 -142 -15 -187 -60 -30 -30 -38 -45 -38 -74 0 -89 49 -123
234 -161 157 -32 211 -49 254 -82 128 -96 96 -291 -61 -367 -131 -64 -364 -55
-506 19 -79 42 -77 38 -48 88 l27 46 57 -30 c83 -42 155 -59 259 -59 136 0
204 30 225 100 15 48 7 79 -27 114 -30 29 -67 41 -254 81 -139 30 -180 48
-226 97 -42 44 -58 97 -51 166 10 97 86 176 198 206 65 18 208 20 281 5z m538
-429 l0 -440 -60 0 -60 0 0 433 c0 239 3 437 7 440 3 4 30 7 60 7 l53 0 0
-440z m454 68 c89 -202 164 -368 167 -368 3 0 79 167 169 370 l163 370 54 0
c36 0 53 -4 53 -12 0 -7 -86 -204 -190 -438 l-189 -425 -63 0 -63 0 -192 435
c-106 239 -193 436 -193 438 0 2 28 2 62 0 l61 -3 161 -367z m896 67 c4 -214
9 -309 18 -330 40 -91 108 -136 218 -143 137 -9 236 44 291 156 l28 57 3 283
3 283 57 -3 57 -3 3 -437 2 -438 -60 0 -60 0 0 75 0 74 -45 -48 c-28 -30 -69
-59 -108 -77 -55 -25 -73 -28 -162 -28 -153 1 -251 48 -311 150 -49 83 -54
125 -54 442 l0 293 58 -3 57 -3 5 -300z m-5540 -780 c14 -12 17 -22 10 -29
-14 -14 -40 -16 -37 -3 1 7 -3 11 -8 10 -6 -1 -11 9 -11 21 0 27 16 28 46 1z
m235 -103 c-3 -3 0 -11 6 -19 6 -7 8 -13 4 -13 -4 0 -2 -6 4 -13 8 -10 7 -14
-4 -14 -7 0 -13 5 -12 11 1 6 -4 10 -11 8 -8 -1 -11 2 -8 7 4 5 2 12 -4 16
-14 8 -5 22 15 22 8 0 13 -3 10 -5z m-154 -221 c70 -213 188 -455 316 -649
241 -365 561 -665 948 -888 127 -74 313 -159 435 -199 47 -16 94 -32 105 -36
86 -34 330 -88 500 -111 178 -23 727 -15 710 11 -2 5 -55 11 -117 15 -62 4
-167 15 -233 25 -85 13 -122 15 -127 7 -6 -8 -11 -7 -17 3 -5 8 -60 27 -123
42 -134 33 -128 33 -128 15 0 -22 -19 -29 -37 -15 -9 8 -23 14 -32 14 -9 0
-16 8 -16 19 0 15 -22 24 -125 53 -131 35 -357 121 -472 179 -38 19 -68 30
-68 25 0 -18 -31 -41 -56 -41 -13 0 -33 9 -45 21 -20 20 -20 32 -5 69 5 11
-11 26 -56 52 -35 21 -92 57 -127 82 -55 39 -67 43 -89 35 -32 -12 -54 7 -54
45 0 20 -14 37 -52 67 -191 152 -409 393 -555 614 -51 77 -97 142 -102 143 -5
2 -9 10 -9 17 0 7 -29 71 -64 141 -68 135 -127 275 -131 310 -2 12 3 21 11 21
8 0 12 -3 9 -5 -3 -3 3 -15 13 -26 10 -12 25 -37 32 -56 84 -221 299 -597 361
-630 10 -6 19 -18 19 -27 0 -20 129 -179 207 -255 49 -48 60 -54 71 -42 7 8
10 14 7 14 -3 0 -3 5 0 10 5 8 11 7 21 -1 20 -17 17 -38 -7 -48 -20 -7 -16
-13 47 -69 186 -166 381 -299 601 -409 162 -82 214 -95 85 -22 -400 227 -759
576 -1011 981 -64 102 -76 116 -91 108 -28 -15 -51 -12 -66 8 -29 38 -7 77 26
47 37 -34 33 9 -8 92 -33 65 -92 199 -92 209 0 1 8 1 18 0 18 -3 20 -5 118
-210 261 -542 714 -999 1264 -1276 106 -53 343 -149 434 -175 197 -56 613 -80
885 -51 175 19 345 52 511 101 116 34 192 42 167 18 -13 -12 -167 -64 -252
-84 -61 -15 -59 -13 -44 -37 13 -20 13 -20 95 9 45 16 118 44 163 63 44 20 81
33 81 29 0 -3 7 0 16 7 12 11 15 11 12 -1 -2 -8 3 -13 10 -11 8 1 11 -2 7 -8
-3 -6 -11 -8 -16 -5 -5 4 -9 3 -9 -2 0 -4 -21 -17 -47 -27 -59 -24 -40 -33 24
-12 27 9 57 17 68 19 11 1 26 6 33 11 8 5 12 3 10 -6 -2 -7 4 -12 12 -10 8 2
11 0 7 -5 -5 -4 -11 -7 -14 -5 -2 2 -15 -8 -28 -22 -14 -15 -30 -23 -39 -20
-8 3 -56 -6 -108 -20 -51 -14 -151 -36 -223 -50 -71 -13 -188 -38 -260 -54
-71 -17 -178 -38 -237 -47 -133 -19 -439 -37 -495 -29 -39 6 -43 4 -49 -20 -6
-26 -35 -43 -54 -31 -6 4 -8 11 -5 16 16 24 -29 42 -138 54 -518 61 -989 252
-1412 574 -130 98 -410 378 -507 506 -196 260 -342 529 -438 812 -28 83 -35
114 -27 122 16 16 31 -7 58 -88z m259 63 c0 -8 -19 -13 -24 -6 -3 5 1 9 9 9 8
0 15 -2 15 -3z m-154 -62 c6 -4 16 -17 23 -30 10 -19 10 -28 -4 -48 -8 -13
-24 -24 -35 -24 -25 0 -60 34 -60 59 0 37 46 63 76 43z m274 -83 c0 -6 9 -18
21 -28 19 -15 20 -18 5 -30 -34 -29 -86 12 -69 55 6 16 43 19 43 3z m498 -294
c0 -28 -25 -35 -34 -10 -7 17 14 48 26 40 4 -3 8 -16 8 -30z m-648 -75 c0 -5
-4 -10 -10 -10 -5 0 -10 5 -10 10 0 6 5 10 10 10 6 0 10 -4 10 -10z m550 -42
c0 -15 -32 -21 -40 -7 -13 20 9 43 26 28 8 -6 14 -16 14 -21z m850 -378 c0 -5
-2 -10 -4 -10 -3 0 -8 5 -11 10 -3 6 -1 10 4 10 6 0 11 -4 11 -10z m-954 -75
c13 -20 14 -28 4 -40 -7 -8 -21 -15 -32 -15 -22 0 -36 29 -19 39 7 4 11 12 10
17 -6 32 15 32 37 -1z m1408 -81 c9 -22 8 -24 -9 -24 -8 0 -15 9 -15 20 0 24
15 27 24 4z m-714 -54 c0 -5 -2 -10 -4 -10 -3 0 -8 5 -11 10 -3 6 -1 10 4 10
6 0 11 -4 11 -10z m430 -56 c11 -12 10 -18 -3 -32 -15 -15 -19 -15 -32 -1 -17
17 -11 49 10 49 7 0 18 -7 25 -16z m-248 -139 c9 -20 9 -28 -1 -38 -10 -9 -15
-9 -24 4 -7 9 -17 14 -24 12 -17 -6 -26 16 -13 32 19 23 49 18 62 -10z m762
-87 c8 -5 7 -11 -2 -20 -10 -10 -15 -9 -29 4 -14 15 -14 19 -3 34 11 13 15 13
19 3 2 -8 9 -17 15 -21z m1146 26 c0 -8 -19 -13 -24 -6 -3 5 1 9 9 9 8 0 15
-2 15 -3z m-1689 -46 c28 5 34 -19 9 -40 -30 -24 -46 -23 -66 7 -13 20 -14 28
-4 40 10 12 15 13 28 3 8 -7 23 -12 33 -10z m518 -144 c-6 -7 -17 -10 -25 -7
-17 6 -18 15 -2 31 17 17 43 -5 27 -24z m-249 12 c0 -2 3 -11 6 -19 3 -8 -4
-24 -17 -36 -20 -18 -24 -19 -50 -5 -38 19 -41 59 -4 52 14 -3 28 -1 31 3 5 9
34 13 34 5z m1534 -8 c-5 -7 -3 -8 7 -2 21 13 39 13 36 1 -1 -7 4 -11 11 -9 8
1 11 -1 8 -6 -3 -5 -20 -9 -38 -8 -23 1 -34 6 -36 19 -2 9 2 17 8 17 6 0 8 -5
4 -12z m358 -33 c15 1 26 -3 25 -9 -1 -6 8 -10 20 -10 12 1 21 -4 20 -10 -1
-6 5 -9 13 -8 8 2 11 0 7 -5 -5 -4 -13 -9 -18 -9 -5 -1 -10 -3 -11 -4 -2 -1
-15 -3 -31 -4 -25 -3 -26 -1 -12 14 18 19 8 35 -12 19 -7 -6 -13 -8 -13 -4 0
4 -7 2 -16 -5 -12 -11 -15 -11 -12 1 2 9 -5 14 -20 13 -22 -1 -22 -1 -6 17 10
11 21 16 28 11 6 -5 23 -8 38 -7z m-527 -40 c0 -14 -6 -19 -17 -17 -10 2 -18
-2 -18 -8 0 -13 -27 -13 -35 0 -3 5 -1 19 5 30 15 28 65 24 65 -5z m712 -52
c0 -6 -4 -10 -8 -7 -4 2 -11 0 -14 -6 -4 -7 -11 -7 -18 -2 -7 5 -20 8 -30 7
-9 -2 -15 1 -11 6 3 5 9 7 14 4 5 -3 11 -2 14 3 8 13 53 9 53 -5z"/>
<path d="M4584 7252 c4 -3 14 -7 22 -8 9 -1 13 0 10 4 -4 3 -14 7 -22 8 -9 1
-13 0 -10 -4z"/>
<path d="M6754 6229 c-2 -4 0 -10 6 -14 5 -3 10 -3 10 1 0 4 9 -1 20 -11 11
-10 20 -14 20 -10 0 4 10 0 23 -11 12 -10 7 -3 -11 17 -31 34 -57 45 -68 28z
m47 -16 c13 -16 12 -17 -3 -4 -10 7 -18 15 -18 17 0 8 8 3 21 -13z"/>
<path d="M1556 3712 c-3 -5 3 -17 13 -26 11 -10 22 -13 25 -8 3 5 -3 17 -13
26 -11 10 -22 13 -25 8z m25 -19 c13 -16 12 -17 -3 -4 -10 7 -18 15 -18 17 0
8 8 3 21 -13z"/>
<path d="M1800 3596 c0 -2 8 -10 18 -17 15 -13 16 -12 3 4 -13 16 -21 21 -21
13z"/>
<path d="M4964 1615 c-91 -17 -268 -35 -353 -36 -62 -1 -64 -1 -31 -11 35 -10
323 -5 442 8 49 6 57 10 61 30 5 28 -7 29 -119 9z"/>
<path d="M5545 1820 c-4 -6 -3 -10 2 -9 4 1 10 0 13 -1 18 -7 41 -7 45 0 3 5
-3 7 -12 5 -10 -1 -23 2 -30 7 -7 6 -14 5 -18 -2z"/>
<path d="M5631 1786 c-10 -11 -9 -14 1 -12 14 2 23 15 15 22 -2 2 -10 -2 -16
-10z"/>
<path d="M5746 1728 c3 -5 10 -6 15 -3 13 9 11 12 -6 12 -8 0 -12 -4 -9 -9z"/>
</g>
</svg>
